HIERARCHY
ROOT Hips
{
 OFFSET 0.000000 0.000000 0.000000
 CHANNELS 6 Xposition Yposition Zposition Yrotation Xrotation Zrotation
 JOINT Chest
 {
  OFFSET 0.000000 9.585900 0.002600
  CHANNELS 3 Yrotation Xrotation Zrotation
  JOINT Chest2
  {
   OFFSET 0.000000 9.601200 -0.005300
   CHANNELS 3 Yrotation Xrotation Zrotation
   JOINT Chest3
   {
    OFFSET 0.000000 9.561800 0.000000
    CHANNELS 3 Yrotation Xrotation Zrotation
    JOINT Chest4
    {
     OFFSET 0.000000 9.552100 0.000000
     CHANNELS 3 Yrotation Xrotation Zrotation
     JOINT Neck
     {
      OFFSET 0.000000 14.453000 0.000000
      CHANNELS 3 Yrotation Xrotation Zrotation
      JOINT Head
      {
       OFFSET 0.000000 8.936500 -0.011300
       CHANNELS 3 Yrotation Xrotation Zrotation
       End Site
       {
        OFFSET 0.000000 17.073600 -0.006000
       }
      }
     }
     JOINT RightCollar
     {
      OFFSET -2.921100 9.558500 0.000000
      CHANNELS 3 Yrotation Xrotation Zrotation
      JOINT RightShoulder
      {
       OFFSET -13.519700 0.000000 0.000000
       CHANNELS 3 Yrotation Xrotation Zrotation
       JOINT RightElbow
       {
        OFFSET 0.000000 -29.696600 0.000000
        CHANNELS 3 Yrotation Xrotation Zrotation
        JOINT RightWrist
        {
         OFFSET 0.000000 -24.004700 0.000000
         CHANNELS 3 Yrotation Xrotation Zrotation
         End Site
         {
          OFFSET 0.000000 -17.728500 0.000000
         }
        }
       }
      }
     }
     JOINT LeftCollar
     {
      OFFSET 2.921100 9.558500 0.000000
      CHANNELS 3 Yrotation Xrotation Zrotation
      JOINT LeftShoulder
      {
       OFFSET 13.519700 0.000000 0.000000
       CHANNELS 3 Yrotation Xrotation Zrotation
       JOINT LeftElbow
       {
        OFFSET 0.000000 -29.696600 0.000000
        CHANNELS 3 Yrotation Xrotation Zrotation
        JOINT LeftWrist
        {
         OFFSET 0.000000 -24.004700 0.000000
         CHANNELS 3 Yrotation Xrotation Zrotation
         End Site
         {
          OFFSET 0.000000 -17.728500 0.000000
         }
        }
       }
      }
     }
    }
   }
  }
 }
 JOINT RightHip
 {
  OFFSET -7.771700 -0.012900 -0.001300
  CHANNELS 3 Yrotation Xrotation Zrotation
  JOINT RightKnee
  {
   OFFSET 0.000000 -40.869800 0.001200
   CHANNELS 3 Yrotation Xrotation Zrotation
   JOINT RightAnkle
   {
    OFFSET 0.000000 -39.717900 0.002100
    CHANNELS 3 Yrotation Xrotation Zrotation
    JOINT RightToe
    {
     OFFSET 0.000000 -4.965400 11.033500
     CHANNELS 3 Yrotation Xrotation Zrotation
     End Site
     {
      OFFSET 0.000000 -1.423100 5.872300
     }
    }
   }
  }
 }
 JOINT LeftHip
 {
  OFFSET 7.771700 -0.012900 -0.001300
  CHANNELS 3 Yrotation Xrotation Zrotation
  JOINT LeftKnee
  {
   OFFSET 0.000000 -40.869800 0.001200
   CHANNELS 3 Yrotation Xrotation Zrotation
   JOINT LeftAnkle
   {
    OFFSET 0.000000 -39.717900 0.002100
    CHANNELS 3 Yrotation Xrotation Zrotation
    JOINT LeftToe
    {
     OFFSET 0.000000 -4.965400 11.033500
     CHANNELS 3 Yrotation Xrotation Zrotation
     End Site
     {
      OFFSET 0.000000 -1.423100 5.872300
     }
    }
   }
  }
 }
}
MOTION
Frames: 7
Frame Time: 0.008333
0.000000 85.388000 0.000000 0.000000 -5.767877 0.000000 0.000000 11.653817 0.000000 0.000000 -5.885947 0.000000 0.000000 -0.000000 0.000000 0.000000 -0.000000 0.000000 0.000000 12.528835 0.000000 0.000000 0.711642 0.000000 0.000000 -0.000000 0.000000 0.000000 0.000000 -90.000000 0.000000 -2.309062 0.000000 0.000000 2.309062 0.000000 0.000000 -0.000000 0.000000 0.000000 -0.000000 90.000000 0.000000 -2.309062 0.000000 0.000000 2.309062 0.000000 0.000000 8.520406 0.000000 0.000000 1.905762 0.000000 -0.000000 -4.658285 0.000000 0.000000 -0.000000 0.000000 0.000000 8.520406 0.000000 0.000000 1.905762 0.000000 -0.000000 -4.658285 0.000000 0.000000 -0.000000 0.000000
-22.223141 60.884186 31.617576 161.640522 -36.480577 4.292858 1.553768 20.344151 1.498950 0.099861 2.560041 0.226747 0.169171 4.195686 0.374317 0.906550 17.402290 1.677526 4.970007 12.697732 -3.982627 6.296664 -12.159442 -5.679406 1.933844 7.613679 -5.561060 -10.053520 -9.837175 -4.295192 -80.503518 -51.014857 89.805680 -13.182460 -12.506238 -33.714671 -7.976615 3.262745 -4.273899 20.684220 -9.674204 -2.606177 63.673697 -45.143967 -84.868773 3.545114 -8.522345 13.571177 5.435406 -33.767960 0.397964 -23.077489 66.258480 -24.759165 0.458556 0.132210 3.184376 -0.641072 -0.768508 -0.348558 5.590614 -30.157219 4.466850 30.031416 63.073664 27.257426 -22.612580 -7.365535 -1.671300 1.152889 0.734207 0.519040
-22.210512 60.893005 31.635412 161.628926 -36.550902 4.219753 1.556128 20.368090 1.549409 0.099913 2.560880 0.226270 0.136892 4.157805 0.348105 0.907264 17.408340 1.670872 5.006508 12.800118 -4.034371 6.340766 -12.046974 -5.745579 1.896445 7.599114 -5.570629 -10.067313 -9.671576 -4.239394 -80.387425 -51.204144 89.750268 -13.109154 -12.356311 -33.613832 -7.984989 3.304143 -4.214884 20.786754 -9.356007 -2.316977 63.417475 -44.900345 -85.005131 3.549914 -8.475445 13.484794 5.279800 -33.657481 0.508099 -22.905007 66.181130 -24.606947 0.524211 0.133076 3.174942 -0.685249 -0.730891 -0.369856 5.420564 -30.093841 4.624459 30.096910 63.060591 27.257478 -22.532381 -7.317842 -1.729136 1.207648 0.709823 0.539969
-22.201044 60.902723 31.656705 161.613978 -36.622641 4.160212 1.502685 20.335997 1.530278 0.100832 2.564126 0.225351 0.155167 4.183138 0.360126 0.910817 17.415721 1.665258 4.996164 12.914764 -4.161167 6.403134 -11.976662 -5.749892 1.853993 7.581239 -5.578800 -10.054837 -9.536502 -4.164235 -80.269681 -51.397459 89.670974 -13.035309 -12.203428 -33.508537 -7.988935 3.337927 -4.156591 20.881218 -9.053807 -2.047534 63.135353 -44.628541 -85.128142 3.554850 -8.431366 13.423565 5.154004 -33.552154 0.600005 -22.760219 66.109299 -24.468910 0.558429 0.152367 3.155969 -0.699513 -0.709138 -0.380666 5.273681 -30.028749 4.753792 30.156143 63.039818 27.269965 -22.469271 -7.263029 -1.782320 1.250746 0.677422 0.548820
-22.192769 60.914565 31.679226 161.585944 -36.709439 4.110679 1.457635 20.324376 1.511117 0.101802 2.567898 0.224509 0.172272 4.207678 0.370630 0.954178 17.454323 1.686868 4.962631 12.975974 -4.257788 6.446676 -11.893759 -5.796157 1.771487 7.532359 -5.600231 -10.018533 -9.429417 -4.075078 -80.155545 -51.592722 89.575626 -12.963641 -12.051191 -33.401887 -8.025126 3.336215 -4.113245 20.971963 -8.771857 -1.801043 62.830726 -44.332646 -85.240575 3.560423 -8.391594 13.388870 5.045212 -33.431384 0.685163 -22.588952 66.041723 -24.296453 0.567557 0.182884 3.130157 -0.703047 -0.694373 -0.387850 5.208157 -29.946817 4.850079 30.143789 63.013283 27.269716 -22.439290 -7.212094 -1.829635 1.260933 0.653511 0.553667
-22.188051 60.928787 31.701074 161.570682 -36.815327 4.070968 1.410652 20.354613 1.490928 0.102502 2.571580 0.223968 0.173414 4.213441 0.369694 0.999142 17.489344 1.708905 4.934484 13.027454 -4.330672 6.476612 -11.810505 -5.861613 1.689998 7.489123 -5.618055 -9.965447 -9.349842 -3.973959 -80.039037 -51.788158 89.469066 -12.896333 -11.910387 -33.303279 -8.057961 3.336311 -4.072817 21.056508 -8.506276 -1.580585 62.517901 -44.016449 -85.350251 3.563926 -8.349056 13.369564 4.944823 -33.292221 0.746133 -22.404444 65.986105 -24.114097 0.560872 0.218369 3.145334 -0.708189 -0.684148 -0.407049 5.144396 -29.844693 4.924813 30.132412 62.977603 27.282677 -22.482298 -7.153204 -1.883699 1.259675 0.622668 0.556324
-22.188802 60.942662 31.724548 161.618017 -36.917021 4.016800 1.307136 20.381110 1.447128 0.102770 2.575416 0.223451 0.173794 4.219498 0.368775 0.942093 17.458942 1.664975 5.041582 13.129381 -4.316771 6.473140 -11.720036 -5.963180 1.713783 7.516215 -5.595504 -9.902141 -9.295677 -3.858311 -79.937047 -51.939942 89.389222 -12.789288 -11.781159 -33.234693 -7.959852 3.422708 -4.022105 21.102069 -8.272009 -1.380203 62.207294 -43.679064 -85.467839 3.563331 -8.301274 13.362292 4.817992 -33.159252 0.776203 -22.223790 65.948832 -23.952913 0.602690 0.227971 3.151939 -0.756991 -0.668780 -0.409464 5.028056 -29.747547 4.954918 30.144280 62.900960 27.343850 -22.556705 -7.071794 -2.008065 1.355165 0.584635 0.596606
